<svg xmlns="http://www.w3.org/2000/svg" viewBox="0 0 1920 1080" width="100%" height="100%" preserveAspectRatio="xMidYMid slice">
  <defs>
    <!-- Botanical Inks & Gradients -->
    <linearGradient id="bjInkSage" x1="0" y1="0" x2="1" y2="1">
      <stop offset="0%" stop-color="#2d5236" stop-opacity="0.9"/>
      <stop offset="100%" stop-color="#41684c" stop-opacity="0.75"/>
    </linearGradient>
    <linearGradient id="bjInkSepia" x1="0" y1="0" x2="0" y2="1">
      <stop offset="0%" stop-color="#6e5436" stop-opacity="0.85"/>
      <stop offset="100%" stop-color="#54402a" stop-opacity="0.7"/>
    </linearGradient>
    <linearGradient id="bjInkOlive" x1="0" y1="1" x2="1" y2="0">
      <stop offset="0%" stop-color="#3c583f" stop-opacity="0.8"/>
      <stop offset="100%" stop-color="#557759" stop-opacity="0.65"/>
    </linearGradient>

    <!-- Fern Sorus Group (Spore cluster) -->
    <g id="bj-sorus">
      <circle cx="0" cy="0" r="1.4" fill="currentColor" opacity="0.7"/>
      <circle cx="0" cy="0" r="2.4" fill="none" stroke="currentColor" stroke-width="0.4"/>
    </g>

    <!-- Clover Leaflet -->
    <g id="bj-clover-leaf">
      <path d="M0 0 C -14 -18 -20 -38 -6 -48 C 4 -54 14 -42 0 -28 C -14 -42 -4 -54 6 -48 C 20 -38 14 -18 0 0 Z" fill="none" stroke="currentColor" stroke-width="0.85"/>
      <path d="M0 0 Q 0 -26 0 -44" fill="none" stroke="currentColor" stroke-width="0.55"/>
      <path d="M-4 -30 Q 0 -36 4 -30" fill="none" stroke="currentColor" stroke-width="0.5" stroke-opacity="0.6"/>
    </g>

    <!-- Ginkgo Leaf -->
    <g id="bj-ginkgo-leaf">
      <path d="M0 0 C 4 -22 18 -44 48 -52 C 58 -55 64 -48 62 -38 C 58 -20 38 -10 12 -4 C 18 -16 28 -28 36 -38 M 0 0 C -4 -22 -18 -44 -48 -52 C -58 -55 -64 -48 -62 -38 C -58 -20 -38 -10 -12 -4 C -18 -16 -28 -28 -36 -38" fill="none" stroke="currentColor" stroke-width="0.9"/>
      <path d="M-62 -38 C -40 -64 0 -68 0 -50 C 0 -68 40 -64 62 -38" fill="none" stroke="currentColor" stroke-width="0.9"/>
      <!-- Dichotomous veins -->
      <path d="M0 0 Q -15 -35 -40 -50 M 0 0 Q -8 -38 -20 -55 M 0 0 Q 8 -38 20 -55 M 0 0 Q 15 -35 40 -50 M 0 0 Q -24 -24 -52 -40 M 0 0 Q 24 -24 52 -40" fill="none" stroke="currentColor" stroke-width="0.45" stroke-opacity="0.65"/>
    </g>

    <!-- Ivy Leaf -->
    <g id="bj-ivy-leaf">
      <path d="M0 0 C -12 -6 -28 -4 -38 -16 C -34 -26 -18 -28 -14 -40 C -8 -54 0 -64 0 -64 C 0 -64 8 -54 14 -40 C 18 -28 34 -26 38 -16 C 28 -4 12 -6 0 0 Z" fill="none" stroke="currentColor" stroke-width="0.9"/>
      <!-- Veins -->
      <path d="M0 0 L0 -62 M 0 -12 L -34 -17 M 0 -12 L 34 -17 M 0 -26 L -12 -38 M 0 -26 L 12 -38" fill="none" stroke="currentColor" stroke-width="0.55" stroke-opacity="0.75"/>
    </g>

    <!-- Crosshair Stamp -->
    <g id="bj-crosshair">
      <line x1="-12" y1="0" x2="12" y2="0" stroke="currentColor" stroke-width="0.6"/>
      <line x1="0" y1="-12" x2="0" y2="12" stroke="currentColor" stroke-width="0.6"/>
      <circle cx="0" cy="0" r="6" fill="none" stroke="currentColor" stroke-width="0.5"/>
      <circle cx="0" cy="0" r="1" fill="currentColor"/>
    </g>
  </defs>

  <style>
    .bj-ink { stroke-linecap: round; stroke-linejoin: round; }
  </style>

  <!-- =========================================================================
       LAYER 1: ARCHIVAL FIELD GRID & TECHNICAL MEASUREMENT MARKS (Deep 2-4%)
       ========================================================================= -->
  <g class="bj-ink" color="#5c533c" opacity="0.32">
    <!-- Outer Archival Border Double Rules -->
    <rect x="28" y="28" width="1864" height="1024" fill="none" stroke="currentColor" stroke-width="0.8" stroke-dasharray="8 4 2 4"/>
    <rect x="36" y="36" width="1848" height="1008" fill="none" stroke="currentColor" stroke-width="0.4"/>

    <!-- Coordinate Grid Crosshairs across margins -->
    <use href="#bj-crosshair" x="48" y="48"/>
    <use href="#bj-crosshair" x="960" y="48"/>
    <use href="#bj-crosshair" x="1872" y="48"/>
    <use href="#bj-crosshair" x="48" y="540"/>
    <use href="#bj-crosshair" x="1872" y="540"/>
    <use href="#bj-crosshair" x="48" y="1032"/>
    <use href="#bj-crosshair" x="960" y="1032"/>
    <use href="#bj-crosshair" x="1872" y="1032"/>

    <!-- Metric Calibration Rulers (Left & Right Margins) -->
    <g transform="translate(42, 280)">
      <line x1="0" y1="0" x2="0" y2="240" stroke="currentColor" stroke-width="0.75"/>
      <line x1="0" y1="0" x2="10" y2="0" stroke="currentColor" stroke-width="0.75"/>
      <line x1="0" y1="30" x2="6" y2="30" stroke="currentColor" stroke-width="0.5"/>
      <line x1="0" y1="60" x2="8" y2="60" stroke="currentColor" stroke-width="0.6"/>
      <line x1="0" y1="90" x2="6" y2="90" stroke="currentColor" stroke-width="0.5"/>
      <line x1="0" y1="120" x2="10" y2="120" stroke="currentColor" stroke-width="0.75"/>
      <line x1="0" y1="150" x2="6" y2="150" stroke="currentColor" stroke-width="0.5"/>
      <line x1="0" y1="180" x2="8" y2="180" stroke="currentColor" stroke-width="0.6"/>
      <line x1="0" y1="210" x2="6" y2="210" stroke="currentColor" stroke-width="0.5"/>
      <line x1="0" y1="240" x2="10" y2="240" stroke="currentColor" stroke-width="0.75"/>
    </g>

    <g transform="translate(1878, 620)">
      <line x1="0" y1="0" x2="0" y2="200" stroke="currentColor" stroke-width="0.75"/>
      <line x1="0" y1="0" x2="-10" y2="0" stroke="currentColor" stroke-width="0.75"/>
      <line x1="0" y1="50" x2="-8" y2="50" stroke="currentColor" stroke-width="0.6"/>
      <line x1="0" y1="100" x2="-10" y2="100" stroke="currentColor" stroke-width="0.75"/>
      <line x1="0" y1="150" x2="-8" y2="150" stroke="currentColor" stroke-width="0.6"/>
      <line x1="0" y1="200" x2="-10" y2="200" stroke="currentColor" stroke-width="0.75"/>
    </g>
  </g>

  <!-- =========================================================================
       LAYER 2: TOP-LEFT CORNER & LEFT MARGIN (Dense Ferns, Ivy & Grasses)
       ========================================================================= -->
  <g class="bj-ink" color="#2c4d34" opacity="0.62">
    <!-- SPECIMEN I: Giant Polypodium / Dryopteris Fern (Top-Left) -->
    <g id="specimen-fern-large" transform="translate(60, -20) rotate(14)">
      <!-- Main Rachis Stem -->
      <path d="M 40 40 Q 140 180 220 380 Q 280 540 310 740" fill="none" stroke="currentColor" stroke-width="2.8"/>
      <path d="M 40 40 Q 140 180 220 380" fill="none" stroke="#684f33" stroke-width="1.2" stroke-dasharray="3 3"/>

      <!-- Fiddlehead / Circinate Crozier at Apex -->
      <path d="M 40 40 C 32 30 18 36 22 50 C 26 62 44 58 42 46 C 40 38 32 40 34 44" fill="none" stroke="currentColor" stroke-width="1.8"/>

      <!-- Pinnate Frond Pairs along Rachis -->
      <path d="M 75 95 C 45 75 15 80 -10 95 C 20 100 50 100 75 95" fill="none" stroke="currentColor" stroke-width="1"/>
      <path d="M 85 110 C 120 90 150 95 180 110 C 150 115 120 115 85 110" fill="none" stroke="currentColor" stroke-width="1"/>

      <!-- Frond 2 -->
      <g transform="translate(105, 140) rotate(-28)">
        <path d="M 0 0 C 35 -30 90 -40 140 -20 C 100 -5 50 5 0 0 Z" fill="none" stroke="currentColor" stroke-width="1.1"/>
        <path d="M 0 0 Q 70 -20 135 -20" fill="none" stroke="currentColor" stroke-width="0.6"/>
        <circle cx="45" cy="-14" r="1.4" fill="currentColor"/><circle cx="75" cy="-18" r="1.4" fill="currentColor"/><circle cx="105" cy="-16" r="1.4" fill="currentColor"/>
      </g>
      <g transform="translate(115, 155) rotate(32)">
        <path d="M 0 0 C 35 -30 90 -40 140 -20 C 100 -5 50 5 0 0 Z" fill="none" stroke="currentColor" stroke-width="1.1"/>
        <path d="M 0 0 Q 70 -20 135 -20" fill="none" stroke="currentColor" stroke-width="0.6"/>
        <circle cx="45" cy="-14" r="1.4" fill="currentColor"/><circle cx="75" cy="-18" r="1.4" fill="currentColor"/><circle cx="105" cy="-16" r="1.4" fill="currentColor"/>
      </g>

      <!-- Frond 3 (Medium) -->
      <g transform="translate(145, 210) rotate(-36)">
        <path d="M 0 0 C 50 -45 130 -55 200 -25 C 145 -5 70 8 0 0 Z" fill="none" stroke="currentColor" stroke-width="1.3"/>
        <path d="M 0 0 Q 100 -30 195 -25" fill="none" stroke="currentColor" stroke-width="0.7"/>
        <path d="M 30 -14 q 12 -12 24 -4 q -8 8 -24 4" fill="none" stroke="currentColor" stroke-width="0.65"/>
        <path d="M 65 -24 q 14 -12 26 -4 q -8 8 -26 4" fill="none" stroke="currentColor" stroke-width="0.65"/>
        <path d="M 105 -28 q 14 -10 26 -3 q -8 8 -26 3" fill="none" stroke="currentColor" stroke-width="0.65"/>
        <path d="M 145 -26 q 12 -8 22 -2 q -8 6 -22 2" fill="none" stroke="currentColor" stroke-width="0.65"/>
      </g>
      <g transform="translate(160, 230) rotate(38)">
        <path d="M 0 0 C 50 -45 130 -55 200 -25 C 145 -5 70 8 0 0 Z" fill="none" stroke="currentColor" stroke-width="1.3"/>
        <path d="M 0 0 Q 100 -30 195 -25" fill="none" stroke="currentColor" stroke-width="0.7"/>
        <path d="M 30 -14 q 12 -12 24 -4 q -8 8 -24 4" fill="none" stroke="currentColor" stroke-width="0.65"/>
        <path d="M 65 -24 q 14 -12 26 -4 q -8 8 -26 4" fill="none" stroke="currentColor" stroke-width="0.65"/>
        <path d="M 105 -28 q 14 -10 26 -3 q -8 8 -26 3" fill="none" stroke="currentColor" stroke-width="0.65"/>
      </g>

      <!-- Frond 4 (Large Lower Frond) -->
      <g transform="translate(195, 310) rotate(-42)">
        <path d="M 0 0 C 60 -55 160 -68 245 -30 C 180 -5 90 10 0 0 Z" fill="none" stroke="currentColor" stroke-width="1.4"/>
        <path d="M 0 0 Q 120 -38 240 -30" fill="none" stroke="currentColor" stroke-width="0.75"/>
        <path d="M 35 -18 q 15 -15 30 -5 q -10 10 -30 5" fill="none" stroke="currentColor" stroke-width="0.7"/>
        <path d="M 80 -32 q 16 -15 32 -5 q -10 10 -32 5" fill="none" stroke="currentColor" stroke-width="0.7"/>
        <path d="M 130 -38 q 16 -14 32 -4 q -10 10 -32 4" fill="none" stroke="currentColor" stroke-width="0.7"/>
        <path d="M 180 -35 q 14 -10 28 -2 q -8 8 -28 2" fill="none" stroke="currentColor" stroke-width="0.7"/>
      </g>
      <g transform="translate(210, 335) rotate(44)">
        <path d="M 0 0 C 60 -55 160 -68 245 -30 C 180 -5 90 10 0 0 Z" fill="none" stroke="currentColor" stroke-width="1.4"/>
        <path d="M 0 0 Q 120 -38 240 -30" fill="none" stroke="currentColor" stroke-width="0.75"/>
        <path d="M 35 -18 q 15 -15 30 -5 q -10 10 -30 5" fill="none" stroke="currentColor" stroke-width="0.7"/>
        <path d="M 80 -32 q 16 -15 32 -5 q -10 10 -32 5" fill="none" stroke="currentColor" stroke-width="0.7"/>
        <path d="M 130 -38 q 16 -14 32 -4 q -10 10 -32 4" fill="none" stroke="currentColor" stroke-width="0.7"/>
      </g>
    </g>

    <!-- Additional Delicate Lateral Fern Sprig -->
    <g transform="translate(85, 410) rotate(-15)">
      <path d="M 0 0 Q 50 -15 110 -5" fill="none" stroke="currentColor" stroke-width="1.1"/>
      <path d="M 20 -5 q 10 -10 20 -2 q -6 6 -20 2" fill="none" stroke="currentColor" stroke-width="0.6"/>
      <path d="M 50 -10 q 10 -10 20 -2 q -6 6 -20 2" fill="none" stroke="currentColor" stroke-width="0.6"/>
      <path d="M 80 -8 q 10 -8 20 -2 q -6 6 -20 2" fill="none" stroke="currentColor" stroke-width="0.6"/>
    </g>

    <!-- SPECIMEN II: Trailing Hedera Helix (Ivy Vine down left edge) -->
    <g id="specimen-ivy-left" transform="translate(25, 480)">
      <path d="M 35 0 C 8 70 55 140 25 220 C -5 300 48 380 20 460 C -8 530 42 600 28 660" fill="none" stroke="currentColor" stroke-width="1.8"/>
      <path d="M 25 110 l -8 -5 M 28 116 l -9 -2 M 22 260 l -8 6 M 25 268 l -9 4 M 20 410 l -7 -4" fill="none" stroke="#684f33" stroke-width="0.8"/>
      <path d="M 30 180 C 65 170 85 190 75 210 C 65 230 45 220 50 205 C 55 195 65 200 62 205" fill="none" stroke="currentColor" stroke-width="0.9"/>
      <path d="M 22 340 C 60 330 75 355 60 370 C 48 382 35 370 42 360" fill="none" stroke="currentColor" stroke-width="0.9"/>

      <g transform="translate(42, 90) rotate(35) scale(0.95)"><use href="#bj-ivy-leaf"/></g>
      <g transform="translate(18, 160) rotate(-65) scale(0.85)"><use href="#bj-ivy-leaf"/></g>
      <g transform="translate(48, 240) rotate(48) scale(1.1)"><use href="#bj-ivy-leaf"/></g>
      <g transform="translate(12, 320) rotate(-52) scale(0.9)"><use href="#bj-ivy-leaf"/></g>
      <g transform="translate(38, 400) rotate(38) scale(1.05)"><use href="#bj-ivy-leaf"/></g>
      <g transform="translate(15, 480) rotate(-60) scale(0.8)"><use href="#bj-ivy-leaf"/></g>
      <g transform="translate(32, 560) rotate(45) scale(0.95)"><use href="#bj-ivy-leaf"/></g>

      <g transform="translate(70, 280)">
        <line x1="0" y1="0" x2="-25" y2="10" stroke="currentColor" stroke-width="1"/>
        <line x1="0" y1="0" x2="16" y2="-12" stroke="currentColor" stroke-width="0.6"/><circle cx="16" cy="-12" r="2.2" fill="none" stroke="currentColor" stroke-width="0.7"/><circle cx="16" cy="-12" r="0.8" fill="#6a5234"/>
        <line x1="0" y1="0" x2="22" y2="2" stroke="currentColor" stroke-width="0.6"/><circle cx="22" cy="2" r="2.2" fill="none" stroke="currentColor" stroke-width="0.7"/><circle cx="22" cy="2" r="0.8" fill="#6a5234"/>
        <line x1="0" y1="0" x2="14" y2="16" stroke="currentColor" stroke-width="0.6"/><circle cx="14" cy="16" r="2.2" fill="none" stroke="currentColor" stroke-width="0.7"/><circle cx="14" cy="16" r="0.8" fill="#6a5234"/>
        <line x1="0" y1="0" x2="-2" y2="20" stroke="currentColor" stroke-width="0.6"/><circle cx="-2" cy="20" r="2.2" fill="none" stroke="currentColor" stroke-width="0.7"/><circle cx="-2" cy="20" r="0.8" fill="#6a5234"/>
        <line x1="0" y1="0" x2="-2" y2="-18" stroke="currentColor" stroke-width="0.6"/><circle cx="-2" cy="-18" r="2.2" fill="none" stroke="currentColor" stroke-width="0.7"/><circle cx="-2" cy="-18" r="0.8" fill="#6a5234"/>
      </g>
    </g>

    <!-- SPECIMEN III: Wild Grasses & Meadow Flora (Poaceae & Trifolium) -->
    <g id="specimen-grasses-left" transform="translate(180, 720)">
      <path d="M 0 340 C 15 240 10 140 -25 30" fill="none" stroke="currentColor" stroke-width="1.3"/>
      <path d="M 12 340 C 35 220 50 110 35 0" fill="none" stroke="currentColor" stroke-width="1.4"/>
      <path d="M 28 340 C 60 250 85 160 120 70" fill="none" stroke="currentColor" stroke-width="1.2"/>

      <g transform="translate(-25, 30)">
        <path d="M 0 0 C -8 -12 -18 -16 -28 -10 C -18 -6 -8 0 0 0 Z" fill="none" stroke="currentColor" stroke-width="0.85"/>
        <line x1="-28" y1="-10" x2="-38" y2="-14" stroke="currentColor" stroke-width="0.4"/>
        <path d="M 8 20 C 0 10 -10 6 -20 12 C -10 16 0 20 8 20 Z" fill="none" stroke="currentColor" stroke-width="0.85"/>
        <line x1="-20" y1="12" x2="-30" y2="8" stroke="currentColor" stroke-width="0.4"/>
        <path d="M 16 45 C 8 35 -2 31 -12 37 C -2 41 8 45 16 45 Z" fill="none" stroke="currentColor" stroke-width="0.85"/>
      </g>

      <g transform="translate(35, 0) rotate(12)">
        <path d="M 0 0 L 0 -75" stroke="currentColor" stroke-width="1"/>
        <path d="M 0 -10 l -8 -8 M 0 -10 l 8 -8 M 0 -25 l -9 -9 M 0 -25 l 9 -9 M 0 -40 l -9 -9 M 0 -40 l 9 -9 M 0 -55 l -8 -8 M 0 -55 l 8 -8 M 0 -70 l -6 -6 M 0 -70 l 6 -6" stroke="currentColor" stroke-width="0.8"/>
        <line x1="-8" y1="-18" x2="-22" y2="-38" stroke="currentColor" stroke-width="0.45"/>
        <line x1="8" y1="-18" x2="22" y2="-38" stroke="currentColor" stroke-width="0.45"/>
        <line x1="-9" y1="-34" x2="-24" y2="-56" stroke="currentColor" stroke-width="0.45"/>
        <line x1="9" y1="-34" x2="24" y2="-56" stroke="currentColor" stroke-width="0.45"/>
        <line x1="0" y1="-75" x2="0" y2="-105" stroke="currentColor" stroke-width="0.5"/>
      </g>

      <g transform="translate(20, 260)">
        <path d="M 0 0 C -15 -25 -30 -40 -40 -65" fill="none" stroke="currentColor" stroke-width="1.1"/>
        <g transform="translate(-40, -65) rotate(-24) scale(0.75)"><use href="#bj-clover-leaf"/></g>
        <path d="M 0 0 C 10 -20 25 -35 45 -55" fill="none" stroke="currentColor" stroke-width="1.1"/>
        <g transform="translate(45, -55) rotate(32) scale(0.8)"><use href="#bj-clover-leaf"/></g>
        <g transform="translate(0, -75)">
          <path d="M 0 0 C -12 -12 -12 -32 0 -44 C 12 -32 12 -12 0 0 Z" fill="none" stroke="currentColor" stroke-width="0.85"/>
          <path d="M -6 -15 C -14 -22 -14 -28 -8 -32 M 6 -15 C 14 -22 14 -28 8 -32 M 0 -10 C -4 -25 -4 -35 0 -42" fill="none" stroke="currentColor" stroke-width="0.6"/>
        </g>
      </g>
    </g>
  </g>

  <!-- =========================================================================
       LAYER 3: TOP-RIGHT CORNER & RIGHT MARGIN (Monstera, Ginkgo, Lavender)
       ========================================================================= -->
  <g class="bj-ink" color="#2f4e38" opacity="0.62">
    <!-- SPECIMEN IV: Monstera Deliciosa (Top-Right Hero Specimen) -->
    <g id="specimen-monstera-large" transform="translate(1620, 40) rotate(-12)">
      <path d="M 0 0 C -40 120 -80 260 -120 420" fill="none" stroke="currentColor" stroke-width="3"/>
      <path d="M 0 0 C -40 120 -80 260 -120 420" fill="none" stroke="#684f33" stroke-width="1.4" stroke-dasharray="4 2"/>

      <g transform="translate(0, 0) rotate(22)">
        <path d="M 0 0 Q 75 140 120 320" fill="none" stroke="currentColor" stroke-width="2.6"/>

        <path d="M 0 0
                 C -35 -20 -80 -10 -115 25
                 C -100 45 -70 50 -30 40
                 C -85 70 -130 95 -145 140
                 C -125 155 -90 148 -45 125
                 C -95 165 -140 210 -130 255
                 C -110 265 -75 240 -35 205
                 C -70 245 -95 295 -75 330
                 C -55 335 -30 300 0 255
                 L 120 320"
              fill="none" stroke="currentColor" stroke-width="1.6"/>

        <path d="M 0 0
                 C 45 -30 100 -20 135 15
                 C 115 38 80 42 40 35
                 C 105 60 160 85 180 130
                 C 155 145 115 138 60 115
                 C 120 155 170 195 165 245
                 C 140 255 100 230 50 195
                 C 90 235 120 285 95 320
                 C 75 325 45 290 20 250
                 L 120 320"
              fill="none" stroke="currentColor" stroke-width="1.6"/>

        <ellipse cx="-20" cy="85" rx="8" ry="22" transform="rotate(-28 -20 85)" fill="none" stroke="currentColor" stroke-width="1.1"/>
        <ellipse cx="28" cy="75" rx="7" ry="18" transform="rotate(32 28 75)" fill="none" stroke="currentColor" stroke-width="1.1"/>
        <ellipse cx="-15" cy="165" rx="9" ry="26" transform="rotate(-24 -15 165)" fill="none" stroke="currentColor" stroke-width="1.1"/>
        <ellipse cx="32" cy="155" rx="8" ry="22" transform="rotate(26 32 155)" fill="none" stroke="currentColor" stroke-width="1.1"/>

        <path d="M 0 15 Q -60 15 -115 25" fill="none" stroke="currentColor" stroke-width="0.9"/>
        <path d="M 0 20 Q 60 10 135 15" fill="none" stroke="currentColor" stroke-width="0.9"/>
        <path d="M 18 65 Q -60 90 -145 140" fill="none" stroke="currentColor" stroke-width="0.9"/>
        <path d="M 22 70 Q 90 90 180 130" fill="none" stroke="currentColor" stroke-width="0.9"/>
        <path d="M 45 140 Q -50 175 -130 255" fill="none" stroke="currentColor" stroke-width="0.9"/>
        <path d="M 52 145 Q 100 175 165 245" fill="none" stroke="currentColor" stroke-width="0.9"/>
        <path d="M 80 220 Q 0 260 -75 330" fill="none" stroke="currentColor" stroke-width="0.9"/>
        <path d="M 85 225 Q 100 265 95 320" fill="none" stroke="currentColor" stroke-width="0.9"/>

        <path d="M -40 25 q -20 15 -35 8 M 50 22 q 25 15 45 8 M -50 90 q -30 18 -55 10 M 60 85 q 35 18 65 10" fill="none" stroke="currentColor" stroke-width="0.45" stroke-opacity="0.6"/>
      </g>
    </g>

    <!-- SPECIMEN V: Ginkgo Biloba Branch (Right Center Margin) -->
    <g id="specimen-ginkgo-right" transform="translate(1740, 520)">
      <path d="M 120 0 C 70 40 40 100 20 180 C 0 250 -30 320 -50 400" fill="none" stroke="#5a432a" stroke-width="2.6"/>
      <path d="M 75 42 q -8 20 -12 45 M 32 125 q -8 25 -10 50" fill="none" stroke="#5a432a" stroke-width="0.8" stroke-opacity="0.7"/>

      <g transform="translate(58, 65)">
        <path d="M 0 0 C -25 -20 -60 -35 -100 -40" fill="none" stroke="currentColor" stroke-width="1.2"/>
        <g transform="translate(-100, -40) rotate(-42) scale(0.9)"><use href="#bj-ginkgo-leaf"/></g>
        <path d="M 0 0 C -20 10 -55 15 -90 10" fill="none" stroke="currentColor" stroke-width="1.1"/>
        <g transform="translate(-90, 10) rotate(14) scale(0.75)"><use href="#bj-ginkgo-leaf"/></g>
      </g>

      <g transform="translate(25, 160)">
        <path d="M 0 0 C -35 -15 -75 -25 -125 -20" fill="none" stroke="currentColor" stroke-width="1.3"/>
        <g transform="translate(-125, -20) rotate(-22) scale(1.05)"><use href="#bj-ginkgo-leaf"/></g>
        <path d="M 0 0 C -30 25 -65 45 -110 55" fill="none" stroke="currentColor" stroke-width="1.1"/>
        <g transform="translate(-110, 55) rotate(48) scale(0.85)"><use href="#bj-ginkgo-leaf"/></g>
        <g transform="translate(-20, 20)">
          <line x1="0" y1="0" x2="-25" y2="28" stroke="currentColor" stroke-width="0.9"/>
          <circle cx="-25" cy="28" r="5" fill="none" stroke="currentColor" stroke-width="0.9"/><circle cx="-25" cy="28" r="2" fill="#6a5234" opacity="0.6"/>
          <line x1="0" y1="0" x2="-10" y2="34" stroke="currentColor" stroke-width="0.9"/>
          <circle cx="-10" cy="34" r="4.5" fill="none" stroke="currentColor" stroke-width="0.9"/><circle cx="-10" cy="34" r="1.8" fill="#6a5234" opacity="0.6"/>
        </g>
      </g>

      <g transform="translate(-10, 270)">
        <path d="M 0 0 C -40 -10 -80 -10 -130 5" fill="none" stroke="currentColor" stroke-width="1.2"/>
        <g transform="translate(-130, 5) rotate(12) scale(0.95)"><use href="#bj-ginkgo-leaf"/></g>
      </g>
    </g>

    <!-- SPECIMEN VI: Lavandula Angustifolia & Seed Capsules (Bottom-Right) -->
    <g id="specimen-lavender-right" transform="translate(1550, 780)">
      <path d="M 20 280 C 15 180 5 90 -15 0" fill="none" stroke="currentColor" stroke-width="1.4"/>
      <path d="M 50 280 C 60 190 75 100 65 15" fill="none" stroke="currentColor" stroke-width="1.3"/>
      <path d="M 85 280 C 105 200 130 120 145 35" fill="none" stroke="currentColor" stroke-width="1.2"/>

      <path d="M 12 180 C -8 165 -25 160 -45 165 M 14 180 C 35 165 55 165 75 175" fill="none" stroke="currentColor" stroke-width="0.9"/>
      <path d="M 6 120 C -12 105 -30 105 -50 115 M 8 120 C 26 105 46 110 65 120" fill="none" stroke="currentColor" stroke-width="0.9"/>

      <g transform="translate(-15, 0) rotate(-6)">
        <line x1="0" y1="0" x2="0" y2="-90" stroke="currentColor" stroke-width="1"/>
        <ellipse cx="0" cy="-12" rx="10" ry="4" fill="none" stroke="currentColor" stroke-width="0.8"/>
        <path d="M -9 -12 c -4 -6 -3 -12 2 -14 M 9 -12 c 4 -6 3 -12 -2 -14" fill="none" stroke="currentColor" stroke-width="0.7"/>
        <ellipse cx="0" cy="-28" rx="9" ry="3.5" fill="none" stroke="currentColor" stroke-width="0.8"/>
        <path d="M -8 -28 c -4 -5 -3 -10 2 -12 M 8 -28 c 4 -5 3 -10 -2 -12" fill="none" stroke="currentColor" stroke-width="0.7"/>
        <ellipse cx="0" cy="-44" rx="8" ry="3" fill="none" stroke="currentColor" stroke-width="0.8"/>
        <ellipse cx="0" cy="-58" rx="7" ry="2.5" fill="none" stroke="currentColor" stroke-width="0.8"/>
        <ellipse cx="0" cy="-72" rx="5.5" ry="2.2" fill="none" stroke="currentColor" stroke-width="0.8"/>
        <path d="M 0 -72 L 0 -88" stroke="currentColor" stroke-width="0.8"/>
      </g>

      <g transform="translate(65, 15) rotate(4)">
        <line x1="0" y1="0" x2="0" y2="-80" stroke="currentColor" stroke-width="1"/>
        <ellipse cx="0" cy="-10" rx="9" ry="3.5" fill="none" stroke="currentColor" stroke-width="0.75"/>
        <ellipse cx="0" cy="-24" rx="8" ry="3" fill="none" stroke="currentColor" stroke-width="0.75"/>
        <ellipse cx="0" cy="-38" rx="7.5" ry="2.8" fill="none" stroke="currentColor" stroke-width="0.75"/>
        <ellipse cx="0" cy="-52" rx="6.5" ry="2.5" fill="none" stroke="currentColor" stroke-width="0.75"/>
        <ellipse cx="0" cy="-66" rx="5" ry="2" fill="none" stroke="currentColor" stroke-width="0.75"/>
      </g>

      <g transform="translate(180, 120)">
        <path d="M 0 0 C -12 0 -20 -15 -18 -35 C -15 -48 -8 -54 0 -54 C 8 -54 15 -48 18 -35 C 20 -15 12 0 0 0 Z" fill="none" stroke="currentColor" stroke-width="1.1"/>
        <line x1="0" y1="0" x2="0" y2="40" stroke="currentColor" stroke-width="1.2"/>
        <ellipse cx="0" cy="-54" rx="14" ry="4" fill="none" stroke="currentColor" stroke-width="1"/>
        <path d="M -10 -54 l 4 -3 M -5 -54 l 2 -4 M 0 -54 l 0 -4.5 M 5 -54 l -2 -4 M 10 -54 l -4 -3" stroke="currentColor" stroke-width="0.8"/>
        <circle cx="-6" cy="-48" r="1" fill="currentColor"/><circle cx="0" cy="-48" r="1" fill="currentColor"/><circle cx="6" cy="-48" r="1" fill="currentColor"/>
        <path d="M -10 -10 C -12 -25 -10 -40 -6 -48 M 10 -10 C 12 -25 10 -40 6 -48 M 0 -2 C 0 -20 0 -40 0 -48" fill="none" stroke="currentColor" stroke-width="0.5" stroke-opacity="0.7"/>

        <g transform="translate(45, -10) rotate(-28)">
          <circle cx="0" cy="0" r="4.5" fill="none" stroke="currentColor" stroke-width="0.9"/>
          <path d="M 4 0 C 18 -4 42 -18 64 -22 C 68 -14 55 2 30 6 C 14 8 4 4 0 0" fill="none" stroke="currentColor" stroke-width="0.85"/>
          <path d="M 4 0 Q 35 -10 60 -20" fill="none" stroke="currentColor" stroke-width="0.45"/>
        </g>
      </g>
    </g>
  </g>

  <!-- =========================================================================
       LAYER 4: TOP & BOTTOM BORDERS & SECTION INTERSTITIAL ELEMENTS
       ========================================================================= -->
  <g class="bj-ink" color="#446147" opacity="0.48">
    <!-- Top Center Scientific Header Plate Box Rules (Clean, no text) -->
    <g transform="translate(680, 52)">
      <rect x="0" y="0" width="560" height="20" fill="none" stroke="currentColor" stroke-width="0.7" stroke-dasharray="6 3"/>
      <rect x="4" y="4" width="552" height="12" fill="none" stroke="#684f33" stroke-width="0.4"/>
      <path d="M 24 10 C 18 6 12 8 8 10 C 12 12 18 14 24 10 M 20 10 L 32 10" fill="none" stroke="currentColor" stroke-width="0.6"/>
      <path d="M 536 10 C 542 6 548 8 552 10 C 548 12 542 14 536 10 M 540 10 L 528 10" fill="none" stroke="currentColor" stroke-width="0.6"/>
      <line x1="120" y1="10" x2="440" y2="10" stroke="#684f33" stroke-width="0.5" stroke-dasharray="3 3"/>
    </g>

    <!-- Top Left-Center: Delicate Maidenhair Fern (Adiantum) -->
    <g transform="translate(420, 35) rotate(-6)">
      <path d="M 0 0 C 40 15 80 40 120 80" fill="none" stroke="#3e2d1d" stroke-width="1.1"/>
      <g transform="translate(35, 12)"><path d="M 0 0 l 8 6 M 8 6 c 6 -8 14 -10 18 -4 c 2 6 -4 12 -12 8 Z" fill="none" stroke="currentColor" stroke-width="0.7"/></g>
      <g transform="translate(65, 28)"><path d="M 0 0 l -8 8 M -8 8 c -6 -8 -14 -10 -18 -4 c -2 6 4 12 12 8 Z" fill="none" stroke="currentColor" stroke-width="0.7"/></g>
      <g transform="translate(95, 52)"><path d="M 0 0 l 10 6 M 10 6 c 6 -8 16 -10 20 -3 c 2 6 -4 14 -14 9 Z" fill="none" stroke="currentColor" stroke-width="0.7"/></g>
    </g>

    <!-- Top Right-Center: Sage Sprig (Salvia) -->
    <g transform="translate(1360, 45) rotate(8)">
      <path d="M 0 0 C -30 20 -60 50 -90 90" fill="none" stroke="currentColor" stroke-width="1.2"/>
      <g transform="translate(-25, 15)">
        <path d="M 0 0 C 14 -10 28 -8 38 4 C 28 14 12 12 0 0 Z" fill="none" stroke="currentColor" stroke-width="0.8"/>
        <path d="M 0 0 C -14 -10 -28 -8 -38 4 C -28 14 -12 12 0 0 Z" fill="none" stroke="currentColor" stroke-width="0.8"/>
      </g>
      <g transform="translate(-55, 45)">
        <path d="M 0 0 C 16 -12 32 -10 44 5 C 32 16 14 14 0 0 Z" fill="none" stroke="currentColor" stroke-width="0.85"/>
        <path d="M 0 0 C -16 -12 -32 -10 -44 5 C -32 16 -14 14 0 0 Z" fill="none" stroke="currentColor" stroke-width="0.85"/>
      </g>
    </g>

    <!-- Bottom Center Floral Dissection Anatomy Diagram (Pure vector art, no text) -->
    <g transform="translate(740, 960)">
      <rect x="0" y="0" width="440" height="60" fill="none" stroke="#684f33" stroke-width="0.6" stroke-dasharray="4 2"/>

      <!-- Floral Symmetry Diagram -->
      <g transform="translate(70, 30)">
        <circle cx="0" cy="0" r="18" fill="none" stroke="currentColor" stroke-width="0.7" stroke-dasharray="3 2"/>
        <path d="M -12 -12 Q 0 -18 12 -12 Q 18 0 12 12 Q 0 18 -12 12 Q -18 0 -12 -12" fill="none" stroke="currentColor" stroke-width="0.8"/>
        <circle cx="-7" cy="-7" r="1.5" fill="none" stroke="currentColor" stroke-width="0.6"/>
        <circle cx="7" cy="-7" r="1.5" fill="none" stroke="currentColor" stroke-width="0.6"/>
        <circle cx="9" cy="4" r="1.5" fill="none" stroke="currentColor" stroke-width="0.6"/>
        <circle cx="-9" cy="4" r="1.5" fill="none" stroke="currentColor" stroke-width="0.6"/>
        <circle cx="0" cy="9" r="1.5" fill="none" stroke="currentColor" stroke-width="0.6"/>
        <circle cx="0" cy="0" r="3.5" fill="none" stroke="#684f33" stroke-width="0.7"/>
        <circle cx="-1" cy="-1" r="0.6" fill="#684f33"/><circle cx="1" cy="-1" r="0.6" fill="#684f33"/><circle cx="0" cy="1.2" r="0.6" fill="#684f33"/>
      </g>

      <!-- Leaf Venation Types Diagram -->
      <g transform="translate(220, 24)">
        <path d="M -35 15 C -35 0 -20 -15 -20 -15 C -20 -15 -5 0 -5 15 Z" fill="none" stroke="currentColor" stroke-width="0.75"/>
        <line x1="-20" y1="15" x2="-20" y2="-14" stroke="currentColor" stroke-width="0.6"/>
        <line x1="-20" y1="5" x2="-28" y2="0" stroke="currentColor" stroke-width="0.4"/>
        <line x1="-20" y1="5" x2="-12" y2="0" stroke="currentColor" stroke-width="0.4"/>
        <line x1="-20" y1="-2" x2="-27" y2="-7" stroke="currentColor" stroke-width="0.4"/>
        <line x1="-20" y1="-2" x2="-13" y2="-7" stroke="currentColor" stroke-width="0.4"/>

        <path d="M 20 15 C 6 4 10 -12 20 -15 C 30 -12 34 4 20 15 Z" fill="none" stroke="currentColor" stroke-width="0.75"/>
        <line x1="20" y1="15" x2="20" y2="-14" stroke="currentColor" stroke-width="0.6"/>
        <line x1="20" y1="15" x2="12" y2="-4" stroke="currentColor" stroke-width="0.5"/>
        <line x1="20" y1="15" x2="28" y2="-4" stroke="currentColor" stroke-width="0.5"/>
      </g>

      <!-- Stomata Microscopic Sketch -->
      <g transform="translate(365, 30)">
        <ellipse cx="0" cy="0" rx="14" ry="9" fill="none" stroke="currentColor" stroke-width="0.6"/>
        <path d="M -7 -6 C -3 -8 3 -8 7 -6 C 3 -1 -3 -1 -7 -6 Z" fill="none" stroke="currentColor" stroke-width="0.8"/>
        <path d="M -7 6 C -3 8 3 8 7 6 C 3 1 -3 1 -7 6 Z" fill="none" stroke="currentColor" stroke-width="0.8"/>
        <ellipse cx="0" cy="0" rx="3" ry="1.2" fill="#584128"/>
      </g>
    </g>
  </g>
</svg>
